<?xml version="1.0" standalone="no"?>
<!DOCTYPE svg PUBLIC "-//W3C//DTD SVG 20010904//EN"
 "http://www.w3.org/TR/2001/REC-SVG-20010904/DTD/svg10.dtd">
<svg version="1.0" xmlns="http://www.w3.org/2000/svg"
 width="573.000000pt" height="435.000000pt" viewBox="0 0 573.000000 435.000000"
 preserveAspectRatio="xMidYMid meet">

<g transform="translate(0.000000,435.000000) scale(0.100000,-0.100000)"
fill="#000000" stroke="none">
<path d="M1311 3138 c-25 -128 -51 -268 -61 -323 -5 -33 -12 -69 -14 -80 -13
-66 -108 -573 -119 -635 l-14 -75 116 0 116 0 21 113 c12 62 24 115 27 118 4
5 130 9 163 5 6 -1 19 -53 29 -118 l19 -118 117 0 c64 0 115 3 113 6 -2 3 -24
116 -48 250 -25 134 -54 294 -66 354 -11 61 -28 148 -36 195 -8 47 -26 139
-40 205 -14 66 -26 127 -26 136 1 14 -18 16 -143 18 l-143 2 -11 -53z m175
-379 c8 -46 16 -106 19 -134 3 -27 10 -85 15 -129 5 -43 7 -83 4 -88 -6 -10
-97 -8 -115 2 -7 5 -4 50 10 156 31 220 42 286 48 281 2 -3 11 -43 19 -88z"/>
<path d="M1885 3161 c-3 -17 -5 -59 -3 -95 l2 -65 76 0 c41 1 81 0 88 0 9 -1
12 -106 12 -488 l0 -488 125 0 125 0 0 488 0 487 88 0 88 0 -1 93 0 92 -297 3
-296 2 -7 -29z"/>
<path d="M2785 3176 c-16 -6 -33 -15 -37 -21 -4 -5 -8 -6 -8 -2 0 18 -64 -31
-89 -68 -65 -95 -73 -158 -69 -520 3 -280 5 -304 25 -359 27 -70 64 -121 104
-141 16 -9 29 -13 29 -10 0 4 7 -1 16 -9 8 -9 23 -16 32 -17 9 0 31 -3 47 -7
52 -11 207 -5 215 8 4 7 13 9 19 6 6 -4 11 -3 11 3 0 6 6 8 13 6 12 -5 50 22
95 67 39 40 64 123 70 234 l5 102 -127 1 -126 2 0 -95 c0 -52 -5 -107 -12
-123 -6 -15 -11 -31 -10 -34 1 -4 -24 -6 -55 -5 -49 1 -58 4 -77 29 -20 27
-21 41 -24 360 -3 376 0 400 57 429 29 14 39 15 65 4 45 -18 56 -48 56 -153
l0 -93 126 0 126 0 -4 98 c-3 54 -9 105 -14 113 -4 8 -10 23 -11 33 -4 26 -42
86 -54 86 -6 0 -7 5 -4 10 3 6 0 10 -8 10 -8 0 -18 7 -21 16 -3 8 -10 12 -16
9 -5 -3 -10 -2 -10 4 0 5 -22 17 -50 26 -55 18 -232 19 -285 1z"/>
<path d="M3618 3183 c-16 -2 -28 -8 -28 -13 0 -5 -6 -7 -13 -4 -19 7 -92 -49
-122 -94 -48 -73 -57 -121 -62 -360 -5 -220 3 -456 15 -448 4 2 8 -11 9 -29 2
-47 36 -107 81 -145 22 -18 44 -32 48 -32 5 1 19 -6 31 -14 28 -18 89 -28 168
-28 50 0 120 8 120 14 0 1 11 3 24 6 36 7 92 44 85 56 -4 6 -2 8 3 5 14 -9 35
17 63 78 19 40 25 71 28 162 l5 113 -121 0 -121 0 -7 -45 c-3 -25 -4 -59 -2
-77 7 -43 -9 -110 -29 -125 -20 -15 -77 -17 -103 -3 -36 19 -40 63 -40 406 0
285 2 340 16 374 9 23 19 39 21 36 3 -2 17 0 33 6 21 7 35 6 52 -3 13 -7 26
-13 29 -12 7 2 9 -6 17 -112 4 -49 10 -95 15 -102 4 -6 1 -14 -5 -17 -7 -3 45
-5 115 -4 l128 1 -4 106 c-4 117 -27 189 -74 233 -15 12 -23 16 -19 8 4 -8 -2
-3 -14 13 -12 15 -26 25 -31 21 -5 -3 -9 -1 -9 4 0 17 -70 29 -171 29 -57 1
-116 -1 -131 -4z"/>
</g>
</svg>
